<svg id="Layer_1" data-name="Layer 1" xmlns="http://www.w3.org/2000/svg" viewBox="0 0 329.06 323.86"><defs><style>.cls-1{fill:#f2f2f2;}.cls-1,.cls-2{stroke:#f2f2f2;}.cls-1,.cls-2,.cls-3,.cls-4{stroke-miterlimit:10;}.cls-2,.cls-6{fill:#fff;}.cls-2{stroke-width:10.84px;}.cls-3{fill:#ff1d25;}.cls-3,.cls-4{stroke:#ff1d25;stroke-width:9.77px;}.cls-4{fill:none;}.cls-5,.cls-6{font-size:64px;font-family:BallantinesScriptEFBold, Ballantines Script EF Bold;letter-spacing:-0.01em;}.cls-5{fill:#333;}</style></defs><title>Artboard 1</title><g id="Ridges"><path id="ridges-2" data-name="ridges" class="cls-1" d="M155.49,21.54s10.9-3.66,12.76-6.25c2.14-3,4.18-3.71,6.73-3.88s5.62-.34,8.34,2.55,2.39,6,7.32,7c5.45,1.7,7.32,2.55,11.07,2.55,0,0,11.4-2.55,14.63-4.76s10.39.34,11.41,6.13,2.55,7.66,4.08,9-.85,3.4-.85,3.4l-27.74-9.7-15.15-2.72-22.81-.51Z"/><path id="ridges-3" data-name="ridges" class="cls-1" d="M156,22.18s-11.78-2.85-13.4-5.57-4.87-2.74-7.4-2.36-5.56.86-7.61,4.26-1.06,6.33-5.67,8.38c-5.6,2.26-12,3.92-15.87,5.12,0,0-6.09-.35-9.72-1.83s-10.07,2.54-9.84,8.41-.87,8-2.07,9.69S86,51.42,86,51.42l25-15.37,14.23-5.88,22.18-5.34Z"/><path id="ridges-4" data-name="ridges" class="cls-1" d="M35,121.62s-1.65-9.21-4.08-11.23-1.94-5.25-1.18-7.69.39-5,4.07-6.51,6.42-.06,9.16-4.28c3.12-5.18,6.42-10.84,8.22-14.52,0,0,1.81-5.82.92-9.64s4.09-9.55,9.85-8.4,14-4.71,15.81-5.64-4.92,6.54-4.92,6.54L53.71,82.58l-8,13.13-4.73,23.62Z"/><path id="ridges-5" data-name="ridges" class="cls-1" d="M31.92,124.3s-4.21,13-7.36,13.31-4.56,3.23-5.3,5.68-2.52,4.37-.32,7.68,5.27,3.66,5.15,8.7c-.35,6-.81,12.57-1.4,16.62,0,0-1.8,5.83-4.68,8.48S16,195,21.4,197.26s9.09,3.82,10.07,5.61,3.51-.06,3.51-.06l-7.26-29.37.76-15.37,4.65-22.34Z"/><path id="ridges-6" data-name="ridges" class="cls-1" d="M82,274.56s-11.34-2.21-14.11-.7-5.59-.12-7.58-1.74-4.53-2.21-4.56-6.18,2.32-6-.6-10.1c-3.67-4.8-7.71-10-10.47-13,0,0-4.75-3.83-8.62-4.41s-7.38-7.32-4.18-12.25,6.52-12.86,6.33-14.9,2.94-1.91,2.94-1.91l9.29,33,9.24,12.31L82,268.17Z"/><path id="ridges-7" data-name="ridges" class="cls-1" d="M298.09,95.45s-2.58-7.36-.67-9.88.7-5.55-.6-7.75S293.93,73,290,72.38s-6.26,1.39-9.89-2.11c-4.21-4.34-8.7-9.1-11.29-12.28a61.14,61.14,0,0,1-1.39-10.18c0-3.92-6.14-8.38-11.5-6s-7.76,2.22-9.75,1.72-2.33,2.63-2.33,2.63l23.67,17.42,10.8,11,13.29,18.54Z"/><path id="ridges-8" data-name="ridges" class="cls-1" d="M311.66,177.1s4.9-5.38,8-6.19,4-3.94,4.3-6.48.69-5.58-2-8.48-9-3.55-9.69-8.54c-.64-6-1.83-11.9-1.91-16A82.17,82.17,0,0,1,316,121.9c2.41-3.09.31-10.38-5.4-11.77s-7.48-3-8.74-4.64-3.46.63-3.46.63l7.94,28.3,1.76,15.29-.93,22.8Z"/><path id="ridges-9" data-name="ridges" class="cls-1" d="M281.06,256s7.05-1.84,10.05-.86,5.47-1.14,7.13-3.09,3.62-4.31,2.92-8.22-5.6-7.86-3.48-12.43c2.73-5.39,4.95-11,7.11-14.47a81.71,81.71,0,0,1,10-4.85c3.7-1.28,5.91-8.54,1.88-12.81s-4.63-6.61-4.81-8.66-3.24-1.34-3.24-1.34l-8.75,28.06L293,231.08,279.83,249.7Z"/><path id="ridges-10" data-name="ridges" class="cls-1" d="M199,302.13s14.83,1.9,16.75,4.41,5.17,2.14,7.64,1.47,5.42-1.52,7-5.15.18-7.8,4.51-10.38c5.29-2.92,10.28-6.28,14-7.94a82,82,0,0,1,11,1.62c3.78,1,9.7-3.72,8.77-9.52s-.09-8.07.91-9.86-1.91-2.94-1.91-2.94l-23.05,18.24-13.42,7.53-21.39,7.94Z"/><path id="ridges-11" data-name="ridges" class="cls-1" d="M197.63,304.89s-4.53,2.21-5.12,5.32-3.64,4.24-6.15,4.75-5.52,1.08-8.61-1.42-4.66-5.65-9.69-6c-6-.22-12-1-16.1-.77a81,81,0,0,0-9.08,6.4c-2.91,2.62-10.33,1.05-12.12-4.55s-3.55-7.25-5.25-8.4.39-3.48.39-3.48l28.79,5.91,15.38.67,22.67-2.54Z"/><path class="cls-1" d="M88.68,273.71s0,10.72-.51,14.64,1.36,8.17,3.24,9.36,5.61,1.87,10.21.51,8.51-.17,9.87-.17,12.26.51,12.26.51l.51-6.47Z"/></g><ellipse id="silverCap" class="cls-2" cx="170.9" cy="163.58" rx="140.09" ry="138.55"/><path id="RedStripe" class="cls-3" d="M50.56,126.47,288.14,128a4.23,4.23,0,0,1,4.2,4.47c-.46,8-1.4,24.73-1.78,33.85-.51,12.26-1.79,35.75-3.32,38.81.51-1-231.58-2-231.58-2s-10.72-30.13-10.72-38.81S48,135.67,50.56,126.47Z"/><ellipse id="RedCircle" class="cls-4" cx="171.14" cy="162.58" rx="126.3" ry="124.92"/><text id="ShadowTucks" class="cls-5" transform="translate(105.19 181.11)">Tucks</text><text class="cls-6" transform="translate(104.94 179.96)">Tucks</text></svg>