<svg id="Layer_1" data-name="Layer 1" xmlns="http://www.w3.org/2000/svg" viewBox="0 0 329.06 323.86"><defs><style>.cls-1{fill:#f2f2f2;}.cls-1,.cls-2{stroke:#f2f2f2;}.cls-1,.cls-2,.cls-3,.cls-4{stroke-miterlimit:10;}.cls-2,.cls-6{fill:#fff;}.cls-2{stroke-width:10.84px;}.cls-3{fill:#ff1d25;}.cls-3,.cls-4{stroke:#ff1d25;stroke-width:9.77px;}.cls-4{fill:none;}.cls-5{fill:#333;}</style></defs><title>Artboard 1</title><g id="Ridges"><path id="ridges-2" data-name="ridges" class="cls-1" d="M155.49,21.54s10.9-3.66,12.76-6.25c2.14-3,4.18-3.71,6.73-3.88s5.62-.34,8.34,2.55,2.39,6,7.32,7c5.45,1.7,7.32,2.55,11.07,2.55,0,0,11.4-2.55,14.63-4.76s10.39.34,11.41,6.13,2.55,7.66,4.08,9-.85,3.4-.85,3.4l-27.74-9.7-15.15-2.72-22.81-.51Z"/><path id="ridges-3" data-name="ridges" class="cls-1" d="M156,22.18s-11.78-2.85-13.4-5.57-4.87-2.74-7.4-2.36-5.56.86-7.61,4.26-1.06,6.33-5.67,8.38c-5.6,2.26-12,3.92-15.87,5.12,0,0-6.09-.35-9.72-1.83s-10.07,2.54-9.84,8.41-.87,8-2.07,9.69S86,51.42,86,51.42l25-15.37,14.23-5.88,22.18-5.34Z"/><path id="ridges-4" data-name="ridges" class="cls-1" d="M35,121.62s-1.65-9.21-4.08-11.23-1.94-5.25-1.18-7.69.39-5,4.07-6.51,6.42-.06,9.16-4.28c3.12-5.18,6.42-10.84,8.22-14.52,0,0,1.81-5.82.92-9.64s4.09-9.55,9.85-8.4,14-4.71,15.81-5.64-4.92,6.54-4.92,6.54L53.71,82.58l-8,13.13-4.73,23.62Z"/><path id="ridges-5" data-name="ridges" class="cls-1" d="M31.92,124.3s-4.21,13-7.36,13.31-4.56,3.23-5.3,5.68-2.52,4.37-.32,7.68,5.27,3.66,5.15,8.7c-.35,6-.81,12.57-1.4,16.62,0,0-1.8,5.83-4.68,8.48S16,195,21.4,197.26s9.09,3.82,10.07,5.61,3.51-.06,3.51-.06l-7.26-29.37.76-15.37,4.65-22.34Z"/><path id="ridges-6" data-name="ridges" class="cls-1" d="M82,274.56s-11.34-2.21-14.11-.7-5.59-.12-7.58-1.74-4.53-2.21-4.56-6.18,2.32-6-.6-10.1c-3.67-4.8-7.71-10-10.47-13,0,0-4.75-3.83-8.62-4.41s-7.38-7.32-4.18-12.25,6.52-12.86,6.33-14.9,2.94-1.91,2.94-1.91l9.29,33,9.24,12.31L82,268.17Z"/><path id="ridges-7" data-name="ridges" class="cls-1" d="M298.09,95.45s-2.58-7.36-.67-9.88.7-5.55-.6-7.75S293.93,73,290,72.38s-6.26,1.39-9.89-2.11c-4.21-4.34-8.7-9.1-11.29-12.28a61.14,61.14,0,0,1-1.39-10.18c0-3.92-6.14-8.38-11.5-6s-7.76,2.22-9.75,1.72-2.33,2.63-2.33,2.63l23.67,17.42,10.8,11,13.29,18.54Z"/><path id="ridges-8" data-name="ridges" class="cls-1" d="M311.66,177.1s4.9-5.38,8-6.19,4-3.94,4.3-6.48.69-5.58-2-8.48-9-3.55-9.69-8.54c-.64-6-1.83-11.9-1.91-16A82.17,82.17,0,0,1,316,121.9c2.41-3.09.31-10.38-5.4-11.77s-7.48-3-8.74-4.64-3.46.63-3.46.63l7.94,28.3,1.76,15.29-.93,22.8Z"/><path id="ridges-9" data-name="ridges" class="cls-1" d="M281.06,256s7.05-1.84,10.05-.86,5.47-1.14,7.13-3.09,3.62-4.31,2.92-8.22-5.6-7.86-3.48-12.43c2.73-5.39,4.95-11,7.11-14.47a81.71,81.71,0,0,1,10-4.85c3.7-1.28,5.91-8.54,1.88-12.81s-4.63-6.61-4.81-8.66-3.24-1.34-3.24-1.34l-8.75,28.06L293,231.08,279.83,249.7Z"/><path id="ridges-10" data-name="ridges" class="cls-1" d="M199,302.13s14.83,1.9,16.75,4.41,5.17,2.14,7.64,1.47,5.42-1.52,7-5.15.18-7.8,4.51-10.38c5.29-2.92,10.28-6.28,14-7.94a82,82,0,0,1,11,1.62c3.78,1,9.7-3.72,8.77-9.52s-.09-8.07.91-9.86-1.91-2.94-1.91-2.94l-23.05,18.24-13.42,7.53-21.39,7.94Z"/><path id="ridges-11" data-name="ridges" class="cls-1" d="M197.63,304.89s-4.53,2.21-5.12,5.32-3.64,4.24-6.15,4.75-5.52,1.08-8.61-1.42-4.66-5.65-9.69-6c-6-.22-12-1-16.1-.77a81,81,0,0,0-9.08,6.4c-2.91,2.62-10.33,1.05-12.12-4.55s-3.55-7.25-5.25-8.4.39-3.48.39-3.48l28.79,5.91,15.38.67,22.67-2.54Z"/><path class="cls-1" d="M88.68,273.71s0,10.72-.51,14.64,1.36,8.17,3.24,9.36,5.61,1.87,10.21.51,8.51-.17,9.87-.17,12.26.51,12.26.51l.51-6.47Z"/></g><ellipse id="silverCap" class="cls-2" cx="170.9" cy="163.58" rx="140.09" ry="138.55"/><path id="RedStripe" class="cls-3" d="M50.56,126.47,288.14,128a4.23,4.23,0,0,1,4.2,4.47c-.46,8-1.4,24.73-1.78,33.85-.51,12.26-1.79,35.75-3.32,38.81.51-1-231.58-2-231.58-2s-10.72-30.13-10.72-38.81S48,135.67,50.56,126.47Z"/><ellipse id="RedCircle" class="cls-4" cx="171.14" cy="162.58" rx="126.3" ry="124.92"/><path class="cls-5" d="M148,148.66a.57.57,0,0,1-.32.52,13.39,13.39,0,0,0-3.77,3.71A43.55,43.55,0,0,0,140,159.8q-2,4.23-4.31,8.58-4.36,8-9.73,11.9a28.09,28.09,0,0,1-9,4.16,35.73,35.73,0,0,1-9.86,1.47,16.75,16.75,0,0,1-6.4-1.15Q97,183.23,97,180.15a4.23,4.23,0,0,1,1-2.85,3.34,3.34,0,0,1,2.62-1.18,3.43,3.43,0,0,1,2.11.72,2.25,2.25,0,0,1,1,1.86c0,.63-.28.94-.84.94h-.32c-.94,0-1.41.45-1.41,1.34q0,1.8,2.31,2.82a8.5,8.5,0,0,0,3.77.83,14.26,14.26,0,0,0,8.39-2.3,31.22,31.22,0,0,0,7.49-8q1.85-2.62,5.76-9.47a40.46,40.46,0,0,1,10.24-12.23,22.31,22.31,0,0,1,8.25-4.09,1.07,1.07,0,0,1,.51-.13C148,148.41,148,148.49,148,148.66Zm15.49-5.12A7,7,0,0,1,162,144.7a21.15,21.15,0,0,1-10.23,2.17,46.59,46.59,0,0,1-8.77-1.15,67.7,67.7,0,0,0-12-1.66q-9.79,0-15.87,6.52-4.48,4.8-4.48,9.41a6.43,6.43,0,0,0,2.3,5.12,7.75,7.75,0,0,0,5.31,1.86,11.81,11.81,0,0,0,6.4-2.11,2.42,2.42,0,0,1,1-.45c.13.13.19.21.19.25,0,.47-.7,1.24-2.11,2.31a14.62,14.62,0,0,1-9,3.26,9.92,9.92,0,0,1-6.65-2.27,7.63,7.63,0,0,1-2.69-6.18q0-6.65,6.14-12.09A32.84,32.84,0,0,1,123.81,143a40.6,40.6,0,0,1,12-1.79,46.46,46.46,0,0,1,9.73,1q9.86,2.12,12.48,2.11a9.85,9.85,0,0,0,3.9-.64,4.86,4.86,0,0,1,1.28-.45A.29.29,0,0,1,163.49,143.54Z"/><path class="cls-5" d="M169.57,172.09s-.11.15-.32.57a54.22,54.22,0,0,1-10,10.76,10.24,10.24,0,0,1-6.28,2.3,5.81,5.81,0,0,1-3.2-.83,3.21,3.21,0,0,1-1.53-2.82,9.71,9.71,0,0,1,1-3.33q-6.53,6.8-11.59,6.79a5.62,5.62,0,0,1-3.32-1,3.28,3.28,0,0,1-1.41-2.85q0-1.73,2.24-5.06l6.46-9.6a5.75,5.75,0,0,0,1.22-2.62,3.47,3.47,0,0,0-.19-.77h8.06v.7a6.37,6.37,0,0,1-1.34,3.27q-2.22,3.33-6.8,10-2.3,3.21-2.29,4.35c0,.77.42,1.16,1.27,1.16a4.49,4.49,0,0,0,2.43-.9,32.83,32.83,0,0,0,7.14-6.53q1-1.21,5.68-8.19a6.51,6.51,0,0,0,1.4-3.07v-.77H166v.9c0,.55-.6,1.72-1.8,3.52q-5.06,7.55-7.93,11.52a3.27,3.27,0,0,0-.77,1.92c0,.94.45,1.4,1.34,1.4q2.11,0,6.34-4.35a50.39,50.39,0,0,0,5.31-6.27c.26-.38.47-.58.64-.58S169.57,171.83,169.57,172.09Z"/><path class="cls-5" d="M190.37,172c0,.3-.75,1.46-2.24,3.46a32.59,32.59,0,0,1-4.42,4.74,19.47,19.47,0,0,1-3,2.36A18,18,0,0,1,171.3,185q-6.27,0-6.27-5.51a12,12,0,0,1,2.62-6.85,18.79,18.79,0,0,1,5.44-5.12,25.82,25.82,0,0,1,5.18-2.24,24.85,24.85,0,0,1,3.78-1l4.29.13c1.92,0,2.88.6,2.88,1.66,0,.34-.3.78-.9,1.31a5.52,5.52,0,0,1-1.54,1.06c-.08,0-.12-.19-.12-.58,0-1.45-.58-2.17-1.73-2.17-2.13,0-4.71,1.93-7.71,5.79s-4.51,6.9-4.51,9.12c0,1.71.76,2.56,2.3,2.56a7.31,7.31,0,0,0,2.69-.77,23.28,23.28,0,0,0,8.57-6.14l1.67-2.05a26.17,26.17,0,0,1,2.36-2.3s0,.06.07.06Z"/><path class="cls-5" d="M221.79,171.9q0,1.22-6,7.52t-10.47,6.3a6.32,6.32,0,0,1-3.58-1,3.43,3.43,0,0,1-1.79-3.08c0-.93.76-2.41,2.27-4.41s2.27-3.56,2.27-4.67c0-.77-.49-1.16-1.47-1.16a8.26,8.26,0,0,0-4.78,1.86,15.86,15.86,0,0,0-3.58,3.78L189.39,185h-7.92l24-35.58a4.53,4.53,0,0,0,.77-2.56h8a3.66,3.66,0,0,1,.06.77,5.13,5.13,0,0,1-1.08,2.62l-14.92,22q2.12-1.22,6.08-3.72,7.88-5.5,11.2-5.5c1.45,0,2.18.55,2.18,1.66a3.62,3.62,0,0,1-.77,2.05,2.09,2.09,0,0,1-1.66,1.09.53.53,0,0,1-.32-.06,2.18,2.18,0,0,0-2.18-1.92,10.41,10.41,0,0,0-3.2.89,46.71,46.71,0,0,0-7.61,4.16,18.59,18.59,0,0,1,4.8-.89c3.37,0,5.05,1.08,5.05,3.26,0,.81-.72,2.33-2.17,4.54s-2.18,3.72-2.18,4.48.36,1.22,1.09,1.22c1.32,0,3.48-1.54,6.46-4.61a38.13,38.13,0,0,0,5.38-6.46q.51-.9,1-.9C221.69,171.51,221.79,171.64,221.79,171.9Z"/><path class="cls-5" d="M234.21,162.68a31.13,31.13,0,0,0-1.09,6.46,47.43,47.43,0,0,1-.32,7.3,10.85,10.85,0,0,1-4,6.21,15.37,15.37,0,0,1-9.85,3q-5.05,0-5.06-2.44a2.43,2.43,0,0,1,.9-1.79,2.66,2.66,0,0,1,1.79-.83c.21,0,.32.15.32.45a2.9,2.9,0,0,1-.26.8,2.77,2.77,0,0,0-.25,1.05,1.7,1.7,0,0,0,.51,1.19,1.54,1.54,0,0,0,1.15.54q2.94,0,5.57-5A22.64,22.64,0,0,0,226.53,169c0-1.33-.07-2.63-.19-3.91L223.65,169q-2.25,3.08-3,3.33a.41.41,0,0,1-.13-.32,1.93,1.93,0,0,1,.71-1.15c.08-.17.53-.81,1.34-1.92a52.72,52.72,0,0,0,3.2-5A33.11,33.11,0,0,0,234.21,162.68Z"/><path class="cls-6" d="M147.75,147.51a.59.59,0,0,1-.32.52,13.42,13.42,0,0,0-3.78,3.71,42.81,42.81,0,0,0-3.87,6.91q-2,4.23-4.32,8.58-4.35,8-9.73,11.9a28,28,0,0,1-9,4.16,35.66,35.66,0,0,1-9.85,1.47,16.71,16.71,0,0,1-6.4-1.15q-3.78-1.53-3.78-4.61a4.22,4.22,0,0,1,1-2.85,3.36,3.36,0,0,1,2.63-1.18,3.43,3.43,0,0,1,2.11.72,2.24,2.24,0,0,1,1,1.86c0,.63-.28.94-.83.94h-.32c-.94,0-1.41.45-1.41,1.34,0,1.2.77,2.14,2.3,2.82a8.54,8.54,0,0,0,3.78.83,14.23,14.23,0,0,0,8.38-2.3,31.05,31.05,0,0,0,7.49-8q1.86-2.62,5.76-9.47a40.61,40.61,0,0,1,10.24-12.23,22.35,22.35,0,0,1,8.26-4.09,1.07,1.07,0,0,1,.51-.13C147.7,147.26,147.75,147.34,147.75,147.51Zm15.49-5.12a7.33,7.33,0,0,1-1.54,1.16,21.22,21.22,0,0,1-10.24,2.17,46.78,46.78,0,0,1-8.77-1.15,67.59,67.59,0,0,0-12-1.66q-9.78,0-15.87,6.52-4.48,4.8-4.48,9.41a6.44,6.44,0,0,0,2.31,5.12,7.71,7.71,0,0,0,5.31,1.86,11.84,11.84,0,0,0,6.4-2.11,2.42,2.42,0,0,1,1-.45c.13.13.19.21.19.25,0,.47-.7,1.24-2.11,2.31a14.64,14.64,0,0,1-9,3.26,9.93,9.93,0,0,1-6.66-2.27,7.66,7.66,0,0,1-2.69-6.18q0-6.65,6.15-12.09a32.76,32.76,0,0,1,12.29-6.66,40.58,40.58,0,0,1,12-1.79,46.46,46.46,0,0,1,9.73,1q9.85,2.12,12.48,2.11a9.94,9.94,0,0,0,3.91-.64,4.56,4.56,0,0,1,1.28-.44A.28.28,0,0,1,163.24,142.39Z"/><path class="cls-6" d="M169.32,170.94s-.11.15-.32.57a54.23,54.23,0,0,1-10,10.76,10.19,10.19,0,0,1-6.27,2.3,5.79,5.79,0,0,1-3.2-.83,3.22,3.22,0,0,1-1.54-2.82,9.71,9.71,0,0,1,1-3.33q-6.53,6.79-11.58,6.79a5.65,5.65,0,0,1-3.33-1,3.27,3.27,0,0,1-1.41-2.85q0-1.72,2.24-5.06l6.47-9.6a5.7,5.7,0,0,0,1.21-2.62,3,3,0,0,0-.19-.77h8.07v.7a6.37,6.37,0,0,1-1.34,3.27q-2.22,3.33-6.81,10c-1.52,2.14-2.29,3.59-2.29,4.35s.43,1.16,1.28,1.16a4.46,4.46,0,0,0,2.42-.9,32.38,32.38,0,0,0,7.14-6.53q1-1.22,5.68-8.19a6.41,6.41,0,0,0,1.4-3.07v-.77h7.81v.9c0,.55-.6,1.72-1.79,3.52q-5.06,7.54-7.94,11.52a3.25,3.25,0,0,0-.76,1.92c0,.94.44,1.4,1.34,1.4q2.11,0,6.34-4.35a50.39,50.39,0,0,0,5.31-6.27c.25-.38.47-.58.64-.58S169.32,170.68,169.32,170.94Z"/><path class="cls-6" d="M190.11,170.87c0,.3-.74,1.46-2.24,3.46a32.45,32.45,0,0,1-4.41,4.74,19.48,19.48,0,0,1-3,2.36,18,18,0,0,1-9.41,2.44q-6.27,0-6.27-5.51a12,12,0,0,1,2.62-6.85,18.91,18.91,0,0,1,5.44-5.12,25.68,25.68,0,0,1,5.19-2.24,24.56,24.56,0,0,1,3.77-1l4.29.13c1.92,0,2.88.6,2.88,1.66,0,.34-.3.78-.89,1.31a5.52,5.52,0,0,1-1.54,1.06c-.09,0-.13-.19-.13-.58,0-1.45-.57-2.17-1.73-2.17q-3.19,0-7.71,5.79t-4.51,9.12c0,1.71.77,2.56,2.3,2.56a7.31,7.31,0,0,0,2.69-.77A23.24,23.24,0,0,0,186,175.1c.38-.47.94-1.15,1.66-2a25.11,25.11,0,0,1,2.37-2.3.05.05,0,0,0,.06.06Z"/><path class="cls-6" d="M221.54,170.75q0,1.22-6,7.52t-10.46,6.3a6.29,6.29,0,0,1-3.58-1,3.42,3.42,0,0,1-1.8-3.08c0-.93.76-2.41,2.28-4.41s2.27-3.56,2.27-4.67c0-.77-.49-1.16-1.47-1.16a8.28,8.28,0,0,0-4.79,1.86,16,16,0,0,0-3.57,3.78l-5.3,7.93h-7.91l24-35.58a4.53,4.53,0,0,0,.77-2.56h8a3.66,3.66,0,0,1,.06.77,5.08,5.08,0,0,1-1.09,2.62l-14.91,22c1.41-.81,3.43-2,6.08-3.72q7.88-5.49,11.2-5.5c1.45,0,2.18.56,2.18,1.66a3.62,3.62,0,0,1-.77,2.05,2.1,2.1,0,0,1-1.67,1.09.55.55,0,0,1-.32-.06c-.34-1.28-1.06-1.92-2.17-1.92a10.34,10.34,0,0,0-3.2.89,46.73,46.73,0,0,0-7.62,4.16,18.73,18.73,0,0,1,4.8-.89c3.37,0,5.06,1.08,5.06,3.26,0,.81-.73,2.33-2.18,4.54s-2.17,3.72-2.17,4.48.36,1.22,1.08,1.22c1.33,0,3.48-1.54,6.47-4.61a37.5,37.5,0,0,0,5.37-6.46c.34-.6.69-.9,1-.9S221.54,170.49,221.54,170.75Z"/><path class="cls-6" d="M234,161.53a31.84,31.84,0,0,0-1.09,6.46,46.08,46.08,0,0,1-.32,7.3,10.75,10.75,0,0,1-4,6.21,15.4,15.4,0,0,1-9.86,3q-5.06,0-5.06-2.43a2.44,2.44,0,0,1,.9-1.8,2.7,2.7,0,0,1,1.79-.83c.22,0,.32.15.32.45a2.75,2.75,0,0,1-.25.8,2.81,2.81,0,0,0-.26,1.05,1.7,1.7,0,0,0,.51,1.19,1.56,1.56,0,0,0,1.15.54c2,0,3.82-1.66,5.57-5a22.64,22.64,0,0,0,2.88-10.62,38.64,38.64,0,0,0-.19-3.91l-2.69,3.84q-2.23,3.07-3,3.33a.44.44,0,0,1-.12-.32,1.9,1.9,0,0,1,.7-1.15c.09-.17.53-.81,1.34-1.92a55.07,55.07,0,0,0,3.21-5A33,33,0,0,0,234,161.53Z"/></svg>